<svg width="105" height="31" viewBox="0 0 105 31" fill="none" xmlns="http://www.w3.org/2000/svg">
<path d="M51.013 23.689C51.013 23.137 51.0973 22.424 51.266 21.55C51.45 20.6607 51.68 19.71 51.956 18.698C52.2473 17.6707 52.577 16.628 52.945 15.57C53.313 14.4967 53.6887 13.4923 54.072 12.557C54.4553 11.6217 54.831 10.8013 55.199 10.096C55.567 9.39067 55.8967 8.88467 56.188 8.578C56.3413 8.59333 56.5407 8.65467 56.786 8.762C57.0467 8.854 57.3073 8.969 57.568 9.107C57.8287 9.245 58.0663 9.39833 58.281 9.567C58.4957 9.72033 58.6337 9.866 58.695 10.004C58.2503 10.4027 57.8057 11.0083 57.361 11.821C56.9317 12.6183 56.51 13.5307 56.096 14.558C55.6973 15.5853 55.3217 16.674 54.969 17.824C54.6163 18.9587 54.3097 20.0627 54.049 21.136C53.7883 22.2093 53.5813 23.206 53.428 24.126C53.29 25.046 53.221 25.7897 53.221 26.357C53.221 26.6177 53.244 26.7787 53.29 26.84C52.9527 26.8247 52.7073 26.7633 52.554 26.656C52.4007 26.564 52.278 26.4567 52.186 26.334C52.1093 26.2267 52.0327 26.1117 51.956 25.989C51.8947 25.8817 51.795 25.7973 51.657 25.736C51.5497 25.69 51.4577 25.5827 51.381 25.414C51.3043 25.2453 51.2353 25.0613 51.174 24.862C51.128 24.6473 51.0897 24.4327 51.059 24.218C51.0283 24.0033 51.013 23.827 51.013 23.689ZM62.1319 11.062C61.5185 11.062 61.0432 10.8933 60.7059 10.556C60.3839 10.2033 60.2229 9.78167 60.2229 9.291C60.2229 9.16833 60.2382 9.02267 60.2689 8.854C60.3149 8.68533 60.3685 8.53967 60.4299 8.417C60.6292 8.509 60.9205 8.578 61.3039 8.624C61.7025 8.65467 62.1625 8.67 62.6839 8.67C63.4659 8.67 64.3475 8.63933 65.3289 8.578C66.3255 8.50133 67.2762 8.42467 68.1809 8.348C69.0856 8.27133 69.8829 8.20233 70.5729 8.141C71.2629 8.06433 71.7076 8.026 71.9069 8.026C72.4742 8.026 72.8806 8.24067 73.1259 8.67C73.3866 9.084 73.5782 9.64367 73.7009 10.349C73.3022 10.3183 72.9036 10.2953 72.5049 10.28C72.1216 10.2493 71.7919 10.234 71.5159 10.234C71.0252 10.234 70.5269 10.2493 70.0209 10.28C69.5302 10.3107 69.0319 10.3567 68.5259 10.418C68.3112 10.8627 68.0735 11.3917 67.8129 12.005C67.5522 12.603 67.2916 13.2317 67.0309 13.891C66.7855 14.5503 66.5479 15.2097 66.3179 15.869C66.0879 16.513 65.8885 17.0957 65.7199 17.617C65.3826 18.629 65.0835 19.5643 64.8229 20.423C64.5775 21.2817 64.3552 22.0867 64.1559 22.838C63.9719 23.574 63.8109 24.2793 63.6729 24.954C63.5349 25.6287 63.4122 26.288 63.3049 26.932C62.2776 26.7787 61.4189 26.1347 60.7289 25C60.8515 24.5247 60.9972 24.011 61.1659 23.459C61.3499 22.8917 61.5569 22.2553 61.7869 21.55C62.0322 20.8293 62.3159 20.0167 62.6379 19.112C62.9599 18.2073 63.3279 17.18 63.7419 16.03C63.8952 15.6007 64.0562 15.156 64.2249 14.696C64.3935 14.2207 64.5545 13.753 64.7079 13.293C64.8765 12.833 65.0222 12.3883 65.1449 11.959C65.2829 11.5297 65.3979 11.1387 65.4899 10.786C64.8459 10.8627 64.2325 10.9317 63.6499 10.993C63.0825 11.039 62.5765 11.062 62.1319 11.062ZM70.4385 25.874C70.1931 25.8433 69.9325 25.736 69.6565 25.552C69.3958 25.3833 69.2271 25.1917 69.1505 24.977C69.1505 24.793 69.1735 24.5553 69.2195 24.264C69.2808 23.9727 69.3498 23.6813 69.4265 23.39C69.5031 23.0833 69.5798 22.7997 69.6565 22.539C69.7331 22.263 69.7868 22.056 69.8175 21.918C70.0015 21.918 70.2315 21.964 70.5075 22.056C70.7988 22.148 71.0901 22.2783 71.3815 22.447C71.6881 22.6003 71.9718 22.7843 72.2325 22.999C72.5085 23.1983 72.7155 23.4053 72.8535 23.62C72.7155 23.9267 72.5391 24.218 72.3245 24.494C72.1098 24.77 71.8798 25.0077 71.6345 25.207C71.4045 25.4217 71.1821 25.5827 70.9675 25.69C70.7528 25.8127 70.5765 25.874 70.4385 25.874ZM80.7933 17.709C81.744 16.2983 82.6793 15.0027 83.5993 13.822C84.5347 12.626 85.424 11.5987 86.2673 10.74C87.1107 9.88133 87.885 9.21433 88.5903 8.739C89.2957 8.26367 89.909 8.026 90.4303 8.026C90.6297 8.026 90.8443 8.10267 91.0743 8.256C91.3197 8.40933 91.542 8.60867 91.7413 8.854C91.956 9.09933 92.1323 9.36767 92.2703 9.659C92.4083 9.935 92.4773 10.2033 92.4773 10.464C91.5267 10.7707 90.5913 11.177 89.6713 11.683C88.7667 12.1737 87.8927 12.7487 87.0493 13.408C86.2213 14.052 85.424 14.7727 84.6573 15.57C83.906 16.3673 83.2237 17.2183 82.6103 18.123C82.8557 18.7517 83.1547 19.4263 83.5073 20.147C83.8753 20.8523 84.274 21.5423 84.7033 22.217C85.1327 22.8763 85.5927 23.4897 86.0833 24.057C86.574 24.6243 87.0723 25.0767 87.5783 25.414C87.5017 25.5827 87.3713 25.7437 87.1873 25.897C87.0033 26.0503 86.804 26.1883 86.5893 26.311C86.3747 26.449 86.1447 26.5563 85.8993 26.633C85.6693 26.7097 85.4547 26.748 85.2553 26.748C84.8567 26.748 84.4887 26.5563 84.1513 26.173C83.814 25.805 83.469 25.2453 83.1163 24.494C82.779 23.7273 82.4187 22.7843 82.0353 21.665C81.6673 20.5303 81.2533 19.2117 80.7933 17.709ZM77.3203 26.863C76.7377 26.725 76.2547 26.4797 75.8713 26.127C75.488 25.7897 75.1353 25.3603 74.8133 24.839C74.9513 24.5477 75.1123 24.1643 75.2963 23.689C75.4957 23.2137 75.7333 22.631 76.0093 21.941C76.2853 21.2357 76.615 20.4 76.9983 19.434C77.3817 18.4527 77.8263 17.3103 78.3323 16.007C78.6543 15.179 78.915 14.4813 79.1143 13.914C79.329 13.3467 79.5053 12.7947 79.6433 12.258C79.7967 11.706 79.9423 11.1003 80.0803 10.441C80.2183 9.78167 80.3793 8.946 80.5633 7.934C81.2073 8.05667 81.79 8.34033 82.3113 8.785C82.848 9.22967 83.308 9.76633 83.6913 10.395C83.5227 10.6097 83.3233 10.9393 83.0933 11.384C82.8787 11.8133 82.6333 12.3347 82.3573 12.948C82.0813 13.5613 81.7747 14.2437 81.4373 14.995C81.1 15.7463 80.7473 16.5437 80.3793 17.387C79.5513 19.227 78.8997 20.9137 78.4243 22.447C77.949 23.965 77.581 25.437 77.3203 26.863ZM102.574 17.686C102.972 17.686 103.287 17.824 103.517 18.1C103.747 18.376 103.862 18.7593 103.862 19.25C103.862 19.3727 103.854 19.503 103.839 19.641C103.823 19.7637 103.8 19.871 103.77 19.963C103.448 19.8863 103.095 19.8403 102.712 19.825C102.62 20.4997 102.374 21.2127 101.976 21.964C101.577 22.7 101.094 23.3977 100.527 24.057C99.9595 24.701 99.3385 25.2683 98.6638 25.759C97.9891 26.2497 97.3221 26.5793 96.6628 26.748C94.6081 26.702 93.1055 26.1653 92.1548 25.138C91.2195 24.126 90.7518 22.539 90.7518 20.377C90.7518 18.7977 91.0431 17.272 91.6258 15.8C92.2085 14.3127 92.9828 12.994 93.9488 11.844C94.9148 10.694 96.0188 9.774 97.2608 9.084C98.5181 8.37867 99.8215 8.026 101.171 8.026C102.229 8.026 103.049 8.24833 103.632 8.693C104.23 9.13767 104.529 9.76633 104.529 10.579C104.529 11.1157 104.398 11.614 104.138 12.074C103.892 12.534 103.478 13.0323 102.896 13.569C102.543 13.4617 102.236 13.2777 101.976 13.017C101.715 12.741 101.554 12.4267 101.493 12.074C102.014 11.6907 102.382 11.338 102.597 11.016C102.811 10.694 102.919 10.3107 102.919 9.866C102.919 9.16067 102.497 8.808 101.654 8.808C100.964 8.808 100.22 9.06867 99.4228 9.59C98.6408 10.096 97.8511 10.832 97.0538 11.798C95.9191 13.1627 95.0911 14.5733 94.5698 16.03C94.0485 17.4713 93.7878 19.0967 93.7878 20.906C93.7878 21.5807 93.8568 22.194 93.9948 22.746C94.1328 23.298 94.3168 23.781 94.5468 24.195C94.7768 24.609 95.0451 24.9387 95.3518 25.184C95.6738 25.4293 96.0188 25.5673 96.3868 25.598C96.8775 25.4907 97.3681 25.2453 97.8588 24.862C98.3495 24.4633 98.7941 24.0033 99.1928 23.482C99.6068 22.9453 99.9518 22.378 100.228 21.78C100.519 21.1667 100.695 20.584 100.757 20.032C100.327 20.124 99.9135 20.216 99.5148 20.308C99.1315 20.3847 98.7635 20.423 98.4108 20.423C97.9508 20.423 97.5445 20.308 97.1918 20.078C96.8545 19.848 96.6245 19.5337 96.5018 19.135C96.7778 18.9817 97.1765 18.8207 97.6978 18.652C98.2345 18.4833 98.8018 18.33 99.3998 18.192C99.9978 18.0387 100.58 17.916 101.148 17.824C101.73 17.732 102.206 17.686 102.574 17.686Z" fill="white"/>
<path fill-rule="evenodd" clip-rule="evenodd" d="M27.1109 17.6076C27.6852 18.0765 27.4261 21.756 27.4135 22.7093C27.4016 23.6011 27.4483 24.4159 27.1507 25.2192C25.8919 28.6176 19.2544 28.238 16.7098 27.0238C14.4667 25.9535 12.9134 23.8344 12.7386 21.3809C12.6989 20.8234 12.7858 20.6532 13.1839 20.4495C14.2676 19.8952 17.3428 19.8908 17.2976 21.2258C17.2504 22.6196 16.6306 23.8482 15.8429 24.929C15.7484 25.0587 15.7772 24.9861 15.7274 25.1228C16.0596 25.5132 17.2268 26.1804 17.9221 26.3639C18.0206 26.2783 17.976 26.3188 18.0585 26.2189C19.1481 24.899 20.1292 22.0482 19.769 20.4417C19.271 18.2212 16.6407 17.5756 14.5726 17.6354C13.4806 17.7336 12.5563 17.916 11.7668 18.4132C11.1103 18.8267 10.4359 19.4714 10.24 20.4897C9.87685 22.3769 10.9341 24.798 11.7483 26.0176C13.5785 28.7592 17.0118 30.5562 21.9876 30.2749C26.5248 30.0184 29.8722 28.2606 29.9408 23.7321C29.9588 22.5494 29.9721 21.3664 29.9877 20.1836C30.0054 18.8509 30.0607 18.1894 29.6315 16.9979C29.2072 15.8198 28.3551 14.5843 27.5727 13.6761L26.7828 12.7524C26.582 12.6485 25.5772 11.5687 25.3198 11.3617C25.1997 11.2651 25.1331 11.2259 25.0267 11.1201C24.3228 10.4205 22.6575 9.26469 21.8419 8.70249C20.6393 7.87354 18.8354 6.92635 17.3502 6.42899C16.7267 6.22018 15.6436 6.05791 15.5554 6C15.0646 6.08286 14.5219 6.04196 13.9619 6.14698C9.35155 7.01156 1.17262 13.0888 0.191819 17.6425C-0.0011339 18.5383 0.0669521 19.9486 0.0541891 20.9109C0.0248778 23.123 -0.254961 24.8344 0.819583 26.7524C2.06158 28.9695 5.05478 29.8728 7.69329 30.0912C8.76845 30.1802 9.86803 30.1881 10.9356 30.0637C12.4994 29.8817 12.5154 29.7177 13.6798 29.4508L13.0634 28.9575C12.3996 28.4391 12.0865 28.104 11.5047 27.4921C8.82242 28.0084 3.78854 27.9232 2.77393 24.9171C2.43682 23.9183 2.5756 22.4155 2.59031 21.3075C2.60404 20.2714 2.50647 18.5354 2.82175 17.6568C3.1418 16.7649 3.81711 15.8583 4.31364 15.2723C4.46531 15.0934 4.63103 14.896 4.78439 14.7322C4.9646 14.5396 5.0822 14.4028 5.24569 14.2375L6.23225 13.3112C6.40538 13.1411 6.58677 13.0416 6.75924 12.8786C8.31773 11.4057 11.3394 9.63365 13.3836 8.85672C14.5716 8.40524 15.3618 8.36528 16.6108 8.7726C18.2975 9.32269 20.2452 10.5677 21.6049 11.5536C22.2268 12.0044 22.9429 12.5469 23.4831 13.085C23.5692 13.1707 23.645 13.2263 23.7426 13.3065C23.9403 13.4691 24.076 13.6172 24.2589 13.8003C24.4394 13.9811 24.545 14.0735 24.7517 14.2642C25.2941 14.7649 27.0861 16.9807 27.1109 17.6076Z" fill="white"/>
<path fill-rule="evenodd" clip-rule="evenodd" d="M14.6786 10.901C11.2651 11.5257 12.2546 16.3484 15.581 15.7852C16.8152 15.5763 17.9337 14.3789 17.6545 12.8977C17.4299 11.7061 16.2236 10.6182 14.6786 10.901Z" fill="white"/>
</svg>
