<svg width="174" height="24" viewBox="0 0 174 24" fill="none" xmlns="http://www.w3.org/2000/svg">
<g filter="url(#filter0_d_44_8288)">
<path d="M7.04 17V4.72H2.64V3H13.26V4.72H8.88V17H7.04ZM18.1027 17.22C17.2227 17.22 16.436 17.0067 15.7427 16.58C15.0627 16.1533 14.5227 15.5533 14.1227 14.78C13.736 14.0067 13.5427 13.1067 13.5427 12.08C13.5427 11.0533 13.736 10.1533 14.1227 9.38C14.5227 8.60667 15.0627 8.00667 15.7427 7.58C16.436 7.14 17.2227 6.92 18.1027 6.92C18.9827 6.92 19.7627 7.14 20.4427 7.58C21.136 8.00667 21.676 8.60667 22.0627 9.38C22.4627 10.1533 22.6627 11.0533 22.6627 12.08C22.6627 13.1067 22.4627 14.0067 22.0627 14.78C21.676 15.5533 21.136 16.1533 20.4427 16.58C19.7627 17.0067 18.9827 17.22 18.1027 17.22ZM18.1027 15.52C18.916 15.52 19.576 15.2133 20.0827 14.6C20.6027 13.9867 20.8627 13.1467 20.8627 12.08C20.8627 11 20.6027 10.1533 20.0827 9.54C19.576 8.92667 18.916 8.62 18.1027 8.62C17.2893 8.62 16.6227 8.92667 16.1027 9.54C15.596 10.1533 15.3427 11 15.3427 12.08C15.3427 13.1467 15.596 13.9867 16.1027 14.6C16.6227 15.2133 17.2893 15.52 18.1027 15.52ZM23.6844 17V15.42H24.0444C24.3244 15.42 24.5177 15.3867 24.6244 15.32C24.731 15.2533 24.811 15.0933 24.8644 14.84C24.9977 14.1733 25.091 13.3 25.1444 12.22C25.211 11.14 25.2444 9.94667 25.2444 8.64V7.06H31.8444V17H30.0444V8.66H27.0644C27.0644 10.06 27.0177 11.3733 26.9244 12.6C26.831 13.8133 26.7044 14.8133 26.5444 15.6C26.4377 16.1333 26.2177 16.5 25.8844 16.7C25.551 16.9 25.0444 17 24.3644 17H23.6844ZM38.5909 17.22C37.7109 17.22 36.9243 17.0067 36.2309 16.58C35.5509 16.1533 35.0109 15.5533 34.6109 14.78C34.2243 14.0067 34.0309 13.1067 34.0309 12.08C34.0309 11.0533 34.2243 10.1533 34.6109 9.38C35.0109 8.60667 35.5509 8.00667 36.2309 7.58C36.9243 7.14 37.7109 6.92 38.5909 6.92C39.4709 6.92 40.2509 7.14 40.9309 7.58C41.6243 8.00667 42.1643 8.60667 42.5509 9.38C42.9509 10.1533 43.1509 11.0533 43.1509 12.08C43.1509 13.1067 42.9509 14.0067 42.5509 14.78C42.1643 15.5533 41.6243 16.1533 40.9309 16.58C40.2509 17.0067 39.4709 17.22 38.5909 17.22ZM38.5909 15.52C39.4043 15.52 40.0643 15.2133 40.5709 14.6C41.0909 13.9867 41.3509 13.1467 41.3509 12.08C41.3509 11 41.0909 10.1533 40.5709 9.54C40.0643 8.92667 39.4043 8.62 38.5909 8.62C37.7776 8.62 37.1109 8.92667 36.5909 9.54C36.0843 10.1533 35.8309 11 35.8309 12.08C35.8309 13.1467 36.0843 13.9867 36.5909 14.6C37.1109 15.2133 37.7776 15.52 38.5909 15.52ZM45.3127 17V7.06H47.0927V11.02H51.2527V7.06H53.0327V17H51.2527V12.6H47.0927V17H45.3127ZM59.6823 17.22C58.7757 17.22 57.9957 17 57.3423 16.56C56.7023 16.12 56.2023 15.5067 55.8423 14.72C55.4823 13.9333 55.2823 13.0267 55.2423 12C55.189 10.12 55.2823 8.61333 55.5223 7.48C55.7757 6.33333 56.209 5.46 56.8223 4.86C57.529 4.14 58.4957 3.76 59.7223 3.72C60.509 3.69333 61.0223 3.58667 61.2623 3.4C61.5023 3.21333 61.6223 2.92 61.6223 2.52H63.4223C63.4223 3.05333 63.3157 3.50667 63.1023 3.88C62.889 4.25333 62.5157 4.54667 61.9823 4.76C61.449 4.97333 60.6957 5.11333 59.7223 5.18C58.8957 5.19333 58.249 5.44667 57.7823 5.94C57.489 6.23333 57.2623 6.62 57.1023 7.1C56.9557 7.58 56.8557 8.13333 56.8023 8.76C57.0557 8.21333 57.4357 7.76 57.9423 7.4C58.4623 7.02667 59.0623 6.84 59.7423 6.84C60.649 6.84 61.429 7.05333 62.0823 7.48C62.7357 7.90667 63.2357 8.50667 63.5823 9.28C63.9423 10.0533 64.1223 10.96 64.1223 12C64.1223 13.0267 63.9423 13.9333 63.5823 14.72C63.2223 15.5067 62.709 16.12 62.0423 16.56C61.3757 17 60.589 17.22 59.6823 17.22ZM59.6823 15.58C60.5357 15.58 61.1823 15.26 61.6223 14.62C62.0757 13.98 62.3023 13.1067 62.3023 12C62.3023 10.9067 62.0757 10.04 61.6223 9.4C61.1823 8.76 60.5357 8.44 59.6823 8.44C58.869 8.44 58.2223 8.76667 57.7423 9.42C57.2757 10.0733 57.0423 10.9333 57.0423 12C57.0423 13.1067 57.269 13.98 57.7223 14.62C58.1757 15.26 58.829 15.58 59.6823 15.58ZM68.9739 17.16C68.0006 17.1867 67.1939 16.9667 66.5539 16.5C65.9272 16.02 65.6139 15.3333 65.6139 14.44C65.6139 13.7867 65.8206 13.22 66.2339 12.74C66.6606 12.26 67.2006 11.8867 67.8539 11.62C68.5206 11.34 69.2072 11.2 69.9139 11.2C70.3272 11.1733 70.7072 11.2133 71.0539 11.32C71.4006 11.4133 71.7006 11.5533 71.9539 11.74V10.3C71.9539 9.55333 71.7939 9.06667 71.4739 8.84C71.1672 8.61333 70.6872 8.5 70.0339 8.5C69.4739 8.5 68.8739 8.6 68.2339 8.8C67.6072 9 67.0739 9.25333 66.6339 9.56L65.7939 8.16C66.3406 7.81333 66.9872 7.52 67.7339 7.28C68.4939 7.04 69.2606 6.92 70.0339 6.92C71.2606 6.92 72.1739 7.16667 72.7739 7.66C73.3739 8.14 73.6739 9.02 73.6739 10.3V15.36C73.6739 15.6133 73.7406 15.76 73.8739 15.8C74.0072 15.84 74.3072 15.8067 74.7739 15.7V16.86C74.6006 16.9267 74.3806 16.9933 74.1139 17.06C73.8472 17.1267 73.5739 17.16 73.2939 17.16C72.8672 17.16 72.5606 17.08 72.3739 16.92C72.1872 16.76 72.0606 16.4733 71.9939 16.06C71.6339 16.42 71.1806 16.6867 70.6339 16.86C70.0872 17.0333 69.5339 17.1333 68.9739 17.16ZM68.9939 15.58C69.5539 15.5667 70.0606 15.4867 70.5139 15.34C70.9806 15.18 71.3472 14.96 71.6139 14.68C71.8806 14.3867 72.0006 14.04 71.9739 13.64C71.9472 13.2667 71.7539 13 71.3939 12.84C71.0472 12.68 70.6006 12.6133 70.0539 12.64C69.5606 12.6533 69.1072 12.7467 68.6939 12.92C68.2806 13.08 67.9472 13.2933 67.6939 13.56C67.4539 13.8267 67.3339 14.1267 67.3339 14.46C67.3472 14.8333 67.5006 15.12 67.7939 15.32C68.0872 15.5067 68.4872 15.5933 68.9939 15.58ZM76.797 17V7.06H78.577V14.14L83.157 7.06H84.937V17H83.157V9.98L78.577 17H76.797ZM80.877 6.28C79.9837 6.28 79.3237 6.08667 78.897 5.7C78.4837 5.3 78.2237 4.68 78.117 3.84H79.217C79.2704 4.32 79.4237 4.65333 79.677 4.84C79.9437 5.02667 80.3437 5.12 80.877 5.12C81.4104 5.12 81.8037 5.02667 82.057 4.84C82.3237 4.65333 82.4837 4.32 82.537 3.84H83.637C83.5304 4.68 83.2637 5.3 82.837 5.7C82.4237 6.08667 81.7704 6.28 80.877 6.28ZM94.1223 21.14C93.549 21.14 93.0357 21.0867 92.5823 20.98V19.32C92.7823 19.3733 93.0023 19.4133 93.2423 19.44C93.4957 19.48 93.7357 19.5 93.9623 19.5C94.469 19.5 94.8223 19.4 95.0223 19.2C95.2357 19.0133 95.4357 18.66 95.6223 18.14L96.0623 16.98L92.2623 7.06H94.1423L96.8423 14.8L99.4423 7.06H101.282L97.1623 18.68C96.869 19.5067 96.4957 20.12 96.0423 20.52C95.6023 20.9333 94.9623 21.14 94.1223 21.14ZM107.832 20.26V15.28H108.832C109.432 14.0533 109.852 12.5733 110.092 10.84C110.345 9.10667 110.472 7.08 110.472 4.76V3H118.772V15.28H119.992V20.26H118.292V17H109.552V20.26H107.832ZM110.792 15.28H116.912V4.72H112.312C112.312 7.01333 112.192 9.03333 111.952 10.78C111.712 12.5133 111.325 14.0133 110.792 15.28ZM125.837 17.22C124.957 17.22 124.17 17.0067 123.477 16.58C122.797 16.1533 122.257 15.5533 121.857 14.78C121.47 14.0067 121.277 13.1067 121.277 12.08C121.277 11.0533 121.47 10.1533 121.857 9.38C122.257 8.60667 122.797 8.00667 123.477 7.58C124.17 7.14 124.957 6.92 125.837 6.92C126.717 6.92 127.497 7.14 128.177 7.58C128.87 8.00667 129.41 8.60667 129.797 9.38C130.197 10.1533 130.397 11.0533 130.397 12.08C130.397 13.1067 130.197 14.0067 129.797 14.78C129.41 15.5533 128.87 16.1533 128.177 16.58C127.497 17.0067 126.717 17.22 125.837 17.22ZM125.837 15.52C126.65 15.52 127.31 15.2133 127.817 14.6C128.337 13.9867 128.597 13.1467 128.597 12.08C128.597 11 128.337 10.1533 127.817 9.54C127.31 8.92667 126.65 8.62 125.837 8.62C125.024 8.62 124.357 8.92667 123.837 9.54C123.33 10.1533 123.077 11 123.077 12.08C123.077 13.1467 123.33 13.9867 123.837 14.6C124.357 15.2133 125.024 15.52 125.837 15.52ZM136.599 17.22C135.719 17.22 134.932 17.0067 134.239 16.58C133.559 16.1533 133.019 15.5533 132.619 14.78C132.232 14.0067 132.039 13.1067 132.039 12.08C132.039 11.0533 132.232 10.1533 132.619 9.38C133.019 8.60667 133.559 8.00667 134.239 7.58C134.932 7.14 135.719 6.92 136.599 6.92C137.479 6.92 138.259 7.14 138.939 7.58C139.632 8.00667 140.172 8.60667 140.559 9.38C140.959 10.1533 141.159 11.0533 141.159 12.08C141.159 13.1067 140.959 14.0067 140.559 14.78C140.172 15.5533 139.632 16.1533 138.939 16.58C138.259 17.0067 137.479 17.22 136.599 17.22ZM136.599 15.52C137.412 15.52 138.072 15.2133 138.579 14.6C139.099 13.9867 139.359 13.1467 139.359 12.08C139.359 11 139.099 10.1533 138.579 9.54C138.072 8.92667 137.412 8.62 136.599 8.62C135.785 8.62 135.119 8.92667 134.599 9.54C134.092 10.1533 133.839 11 133.839 12.08C133.839 13.1467 134.092 13.9867 134.599 14.6C135.119 15.2133 135.785 15.52 136.599 15.52ZM142.18 17V15.42H142.54C142.82 15.42 143.014 15.3867 143.12 15.32C143.227 15.2533 143.307 15.0933 143.36 14.84C143.494 14.1733 143.587 13.3 143.64 12.22C143.707 11.14 143.74 9.94667 143.74 8.64V7.06H150.34V17H148.54V8.66H145.56C145.56 10.06 145.514 11.3733 145.42 12.6C145.327 13.8133 145.2 14.8133 145.04 15.6C144.934 16.1333 144.714 16.5 144.38 16.7C144.047 16.9 143.54 17 142.86 17H142.18ZM157.087 17.22C156.207 17.22 155.42 17.0067 154.727 16.58C154.047 16.1533 153.507 15.5533 153.107 14.78C152.72 14.0067 152.527 13.1067 152.527 12.08C152.527 11.0533 152.72 10.1533 153.107 9.38C153.507 8.60667 154.047 8.00667 154.727 7.58C155.42 7.14 156.207 6.92 157.087 6.92C157.967 6.92 158.747 7.14 159.427 7.58C160.12 8.00667 160.66 8.60667 161.047 9.38C161.447 10.1533 161.647 11.0533 161.647 12.08C161.647 13.1067 161.447 14.0067 161.047 14.78C160.66 15.5533 160.12 16.1533 159.427 16.58C158.747 17.0067 157.967 17.22 157.087 17.22ZM157.087 15.52C157.9 15.52 158.56 15.2133 159.067 14.6C159.587 13.9867 159.847 13.1467 159.847 12.08C159.847 11 159.587 10.1533 159.067 9.54C158.56 8.92667 157.9 8.62 157.087 8.62C156.274 8.62 155.607 8.92667 155.087 9.54C154.58 10.1533 154.327 11 154.327 12.08C154.327 13.1467 154.58 13.9867 155.087 14.6C155.607 15.2133 156.274 15.52 157.087 15.52ZM165.823 17V8.66H162.403V7.06H171.062V8.66H167.623V17H165.823Z" fill="white"/>
</g>
<defs>
<filter id="filter0_d_44_8288" x="0.640137" y="0.519989" width="172.422" height="22.62" filterUnits="userSpaceOnUse" color-interpolation-filters="sRGB">
<feFlood flood-opacity="0" result="BackgroundImageFix"/>
<feColorMatrix in="SourceAlpha" type="matrix" values="0 0 0 0 0 0 0 0 0 0 0 0 0 0 0 0 0 0 127 0" result="hardAlpha"/>
<feOffset/>
<feGaussianBlur stdDeviation="1"/>
<feComposite in2="hardAlpha" operator="out"/>
<feColorMatrix type="matrix" values="0 0 0 0 0 0 0 0 0 0 0 0 0 0 0 0 0 0 0.25 0"/>
<feBlend mode="normal" in2="BackgroundImageFix" result="effect1_dropShadow_44_8288"/>
<feBlend mode="normal" in="SourceGraphic" in2="effect1_dropShadow_44_8288" result="shape"/>
</filter>
</defs>
</svg>
